<svg xmlns="http://www.w3.org/2000/svg" version="1.1" xmlns:xlink="http://www.w3.org/1999/xlink" xmlns:svgjs="http://svgjs.dev/svgjs" width="1500" height="1500" viewBox="0 0 1500 1500"><rect width="1500" height="1500" fill="#ffffff"></rect><g transform="matrix(0.6666666666666666,0,0,0.6666666666666666,249.68640762893511,418.6018893387315)"><svg viewBox="0 0 372 247" data-background-color="#043f2d" preserveAspectRatio="xMidYMid meet" height="995" width="1500" xmlns="http://www.w3.org/2000/svg" xmlns:xlink="http://www.w3.org/1999/xlink"><g id="tight-bounds" transform="matrix(1,0,0,1,0.11665636203613872,-0.09999999999999432)"><svg viewBox="0 0 371.7666872759277 247.2" height="247.2" width="371.7666872759277"><g><svg viewBox="0 0 676.5386753746036 449.85300264000006" height="247.2" width="371.7666872759277"><g transform="matrix(1,0,0,1,279.04107537460374,120.37707108086784)"><svg viewBox="0 0 397.4975999999999 209.09886047826438" height="209.09886047826438" width="397.4975999999999"><g id="textblocktransform"><svg viewBox="0 0 397.4975999999999 209.09886047826438" height="209.09886047826438" width="397.4975999999999" id="textblock"><g><rect width="397.4975999999999" height="12.754047375498654" x="0" y="156.45156284302504" fill="#000000" opacity="1" stroke-width="0" stroke="transparent" fill-opacity="1" class="rect-qz-0" data-fill-palette-color="primary" rx="1%" id="qz-0" data-palette-color="#e9efe7"></rect></g><g transform="matrix(1,0,0,1,0.9887999999999693,0)"><svg viewBox="0 0 395.52 141.42716148445334" height="141.42716148445334" width="395.52"><g transform="matrix(1,0,0,1,0,0)"><svg width="395.52" viewBox="3.95 -34.85 99.69 35.65" height="141.42716148445334" data-palette-color="#e9efe7"><path d="M20.5-18.35Q23.45-17.6 25.05-15.45 26.65-13.3 26.65-9.8L26.65-9.8Q26.65-5.25 23.9-2.63 21.15 0 16.35 0L16.35 0 3.95 0 3.95-34.1 15.2-34.1Q19.75-34.1 22.35-31.73 24.95-29.35 24.95-25.4L24.95-25.4Q24.95-22.85 23.8-21.03 22.65-19.2 20.5-18.35L20.5-18.35ZM7.7-30.95L7.7-19.55 15.65-19.55Q21-19.55 21-25.4L21-25.4Q21-28.05 19.45-29.5 17.9-30.95 15.15-30.95L15.15-30.95 7.7-30.95ZM15.85-3.1Q19.05-3.1 20.88-4.9 22.7-6.7 22.7-9.8L22.7-9.8Q22.7-12.9 20.88-14.68 19.05-16.45 15.85-16.45L15.85-16.45 7.7-16.45 7.7-3.1 15.85-3.1ZM41.8 0L31.45 0 31.45-3.3 34.75-3.3 34.75-30.8 31.45-30.8 31.45-34.1 41.8-34.1 41.8-30.8 38.5-30.8 38.5-3.3 41.8-3.3 41.8 0ZM48.55 0L48.55-34.1 57-34.1Q62.25-34.1 66.05-32.08 69.84-30.05 71.84-26.2 73.84-22.35 73.84-17L73.84-17Q73.84-9 69.4-4.5 64.95 0 57 0L57 0 48.55 0ZM52.3-3.4L56.9-3.4Q63-3.4 66.45-6.75 69.9-10.1 69.9-17L69.9-17Q69.9-23.95 66.45-27.3 63-30.65 56.9-30.65L56.9-30.65 52.3-30.65 52.3-3.4ZM91.94 0.8Q88.19 0.8 84.64-1.07 81.09-2.95 78.74-6.15L78.74-6.15 81.79-8.85Q83.59-6 86.39-4.33 89.19-2.65 92.44-2.65L92.44-2.65Q95.99-2.65 97.84-4.23 99.69-5.8 99.69-8.5L99.69-8.5Q99.69-11.45 97.72-13.03 95.74-14.6 91.44-15.8L91.44-15.8Q80.64-18.45 80.64-25.6L80.64-25.6Q80.64-30.05 83.54-32.45 86.44-34.85 91.59-34.85L91.59-34.85Q95.34-34.85 98.32-33.45 101.29-32.05 103.64-29.15L103.64-29.15 100.69-26.65Q98.89-29.1 96.74-30.28 94.59-31.45 91.59-31.45L91.59-31.45Q88.44-31.45 86.44-29.98 84.44-28.5 84.44-25.95L84.44-25.95Q84.44-23.35 86.29-21.83 88.14-20.3 92.54-19.25L92.54-19.25Q97.74-17.85 100.62-15.4 103.49-12.95 103.49-8.5L103.49-8.5Q103.49-5.75 102.09-3.65 100.69-1.55 98.07-0.38 95.44 0.8 91.94 0.8L91.94 0.8Z" opacity="1" transform="matrix(1,0,0,1,0,0)" fill="#000000" class="wordmark-text-0" data-fill-palette-color="primary" id="text-0"></path></svg></g></svg></g><g transform="matrix(1,0,0,1,0,184.2300115770954)"><svg viewBox="0 0 232.20979199999996 24.868848901168967" height="24.868848901168967" width="232.20979199999996"><g transform="matrix(1,0,0,1,0,0)"><svg width="232.20979199999996" viewBox="3.5 -34.3 423.41 45.349999999999994" height="24.868848901168967" data-palette-color="#e9efe7"><path d="M3.5 0L3.5-33.85Q3.85-33.85 5.1-33.88 6.35-33.9 7.9-33.9 9.45-33.9 11-33.93 12.55-33.95 13.55-33.95L13.55-33.95Q19.75-33.95 22.6-31.53 25.45-29.1 25.45-24.7L25.45-24.7Q25.45-21.8 24-19.55 22.55-17.3 19.25-16.3L19.25-16.3Q20.65-15.5 21.75-14.1 22.85-12.7 23.9-10.68 24.95-8.65 26.05-5.98 27.15-3.3 28.6 0L28.6 0 22.15 0Q20.45-3.95 19.18-6.75 17.9-9.55 16.7-11.3 15.5-13.05 14.13-13.85 12.75-14.65 10.9-14.65L10.9-14.65 9.45-14.65 9.45 0 3.5 0ZM9.45-29.7L9.45-19 13.3-19Q16.1-19 17.63-20.25 19.15-21.5 19.15-23.95L19.15-23.95Q19.15-25.05 18.85-26.1 18.55-27.15 17.82-27.95 17.1-28.75 15.88-29.23 14.65-29.7 12.8-29.7L12.8-29.7 9.45-29.7ZM40.95-34.3L40.95-34.3Q42.7-34.3 44.3-33.98 45.9-33.65 47.22-33.23 48.55-32.8 49.47-32.35 50.4-31.9 50.75-31.65L50.75-31.65 48.3-27.35 47.65-27.7Q47-28.05 45.95-28.5 44.9-28.95 43.65-29.3 42.4-29.65 41.25-29.65L41.25-29.65Q39.45-29.65 38.12-28.8 36.8-27.95 36.8-26.15L36.8-26.15Q36.8-23.9 38.25-22.48 39.7-21.05 42.8-19.85L42.8-19.85Q44.8-19.05 46.37-18.18 47.95-17.3 49.05-16.15 50.15-15 50.72-13.5 51.3-12 51.3-9.9L51.3-9.9Q51.3-8 50.57-6.15 49.85-4.3 48.42-2.88 47-1.45 44.9-0.58 42.8 0.3 40.05 0.3L40.05 0.3Q38.1 0.3 36.35-0.1 34.6-0.5 33.17-1.03 31.75-1.55 30.72-2.1 29.7-2.65 29.2-2.95L29.2-2.95 31.3-7.55 32.2-7.05Q33.1-6.55 34.4-5.95 35.7-5.35 37.15-4.85 38.6-4.35 39.65-4.35L39.65-4.35Q42.3-4.35 43.6-5.65 44.9-6.95 44.9-9.3L44.9-9.3Q44.9-10.4 44.55-11.23 44.2-12.05 43.55-12.65 42.9-13.25 41.97-13.73 41.05-14.2 39.9-14.65L39.9-14.65Q37.65-15.6 35.87-16.55 34.1-17.5 32.85-18.73 31.6-19.95 30.95-21.53 30.3-23.1 30.3-25.3L30.3-25.3Q30.3-27.15 31.1-28.78 31.9-30.4 33.3-31.63 34.7-32.85 36.65-33.58 38.6-34.3 40.95-34.3ZM82.59-33.85L69.95 0 65.3 0 52.65-33.85 59-33.85 63.2-21.75Q64.8-17.05 65.95-13.48 67.09-9.9 67.7-8L67.7-8Q68.25-9.9 69.37-13.38 70.5-16.85 72.2-21.65L72.2-21.65 76.55-33.85 82.59-33.85ZM85.64 0L85.64-33.85Q85.99-33.85 87.24-33.88 88.49-33.9 90.04-33.9 91.59-33.9 93.14-33.93 94.69-33.95 95.69-33.95L95.69-33.95Q101.79-33.95 104.69-31.23 107.59-28.5 107.59-23.75L107.59-23.75Q107.59-21.45 106.79-19.53 105.99-17.6 104.42-16.2 102.84-14.8 100.52-14.03 98.19-13.25 95.09-13.25L95.09-13.25 91.59-13.25 91.59 0 85.64 0ZM91.59-29.65L91.59-17.7 95.44-17.7Q98.59-17.7 99.94-19.35 101.29-21 101.29-23.55L101.29-23.55Q101.29-24.7 100.99-25.8 100.69-26.9 99.97-27.78 99.24-28.65 98.02-29.18 96.79-29.7 94.94-29.7L94.94-29.7Q93.84-29.7 93.02-29.7 92.19-29.7 91.59-29.65L91.59-29.65ZM145.49-24.9L145.24-10.1Q145.24-8.6 145.46-7.35 145.69-6.1 145.96-4.88 146.24-3.65 146.49-2.4 146.74-1.15 146.74 0.35L146.74 0.35Q146.74 5.65 144.04 8.25 141.34 10.85 136.74 10.85L136.74 10.85Q135.24 10.85 133.74 10.58 132.24 10.3 130.96 9.95 129.69 9.6 128.79 9.25 127.89 8.9 127.59 8.75L127.59 8.75 128.99 4.4Q129.69 4.7 130.56 5.03 131.44 5.35 132.36 5.65 133.29 5.95 134.29 6.15 135.29 6.35 136.24 6.35L136.24 6.35Q139.04 6.35 140.29 4.67 141.54 3 141.54 0.35L141.54 0.35Q141.54-2.05 140.54-4.6L140.54-4.6Q139.14-1.95 136.81-0.83 134.49 0.3 131.94 0.3L131.94 0.3Q127.99 0.3 126.31-2 124.64-4.3 124.64-8.3L124.64-8.3 124.64-24.9 130.34-24.9 130.34-8.45Q130.34-6.35 131.09-5.15 131.84-3.95 133.64-3.95L133.64-3.95Q134.59-3.95 135.66-4.5 136.74-5.05 137.61-6.03 138.49-7 139.06-8.38 139.64-9.75 139.64-11.35L139.64-11.35 139.64-24.9 145.49-24.9ZM161.69-25.5Q167.44-25.5 170.04-22.1 172.64-18.7 172.64-12.75L172.64-12.75Q172.64-9.95 171.94-7.53 171.24-5.1 169.81-3.33 168.39-1.55 166.24-0.53 164.09 0.5 161.24 0.5L161.24 0.5Q158.39 0.5 156.31-0.38 154.24-1.25 152.89-2.9 151.54-4.55 150.91-6.9 150.29-9.25 150.29-12.2L150.29-12.2Q150.29-15.05 150.99-17.48 151.69-19.9 153.11-21.68 154.54-23.45 156.69-24.48 158.84-25.5 161.69-25.5L161.69-25.5ZM161.19-21.3Q159.74-21.3 158.81-20.65 157.89-20 157.36-18.82 156.84-17.65 156.64-16.07 156.44-14.5 156.44-12.7L156.44-12.7Q156.44-10.85 156.66-9.2 156.89-7.55 157.49-6.33 158.09-5.1 159.11-4.4 160.14-3.7 161.74-3.7L161.74-3.7Q163.19-3.7 164.11-4.35 165.04-5 165.56-6.18 166.09-7.35 166.29-8.9 166.49-10.45 166.49-12.25L166.49-12.25Q166.49-14.1 166.26-15.75 166.04-17.4 165.44-18.65 164.84-19.9 163.81-20.6 162.79-21.3 161.19-21.3L161.19-21.3ZM192.43-12.7L192.43-24.9 198.13-24.9 198.13-12.05Q198.13-9.05 198.51-7.03 198.88-5 199.33-3.75L199.33-3.75Q199.88-2.25 200.53-1.4L200.53-1.4 196.08 0.4Q195.48-0.15 194.98-1L194.98-1Q194.58-1.7 194.16-2.73 193.73-3.75 193.58-5.15L193.58-5.15Q192.23-2.2 189.78-0.95 187.33 0.3 184.68 0.3L184.68 0.3Q180.73 0.3 179.06-2 177.38-4.3 177.38-8.3L177.38-8.3 177.38-24.9 183.08-24.9 183.08-8.4Q183.08-6.3 183.83-5.1 184.58-3.9 186.38-3.9L186.38-3.9Q187.48-3.9 188.56-4.53 189.63-5.15 190.51-6.3 191.38-7.45 191.91-9.08 192.43-10.7 192.43-12.7L192.43-12.7ZM216.23-19.7Q215.33-19.7 214.43-19.25 213.53-18.8 212.83-18.03 212.13-17.25 211.68-16.15 211.23-15.05 211.23-13.7L211.23-13.7 211.23 0 205.53 0 205.53-12.6Q205.53-15.6 205.13-17.63 204.73-19.65 204.28-20.9L204.28-20.9Q203.73-22.35 203.08-23.25L203.08-23.25 207.58-25.05Q208.03-24.5 208.53-23.7L208.53-23.7Q208.93-23 209.33-22.05 209.73-21.1 209.98-19.8L209.98-19.8Q210.98-22.7 212.88-23.98 214.78-25.25 217.18-25.25L217.18-25.25Q218.33-25.25 219.33-24.98 220.33-24.7 220.28-24.7L220.28-24.7 218.68-19.15Q218.73-19.15 218.11-19.43 217.48-19.7 216.23-19.7L216.23-19.7ZM243.63-25.5L243.63-25.5Q245.08-25.5 246.48-25.2 247.88-24.9 248.98-24.5L248.98-24.5Q250.28-24.05 251.38-23.55L251.38-23.55 249.68-19.65Q248.68-20.1 247.68-20.45L247.68-20.45Q246.83-20.75 245.8-21.03 244.78-21.3 243.78-21.3L243.78-21.3Q242.63-21.3 241.8-20.75 240.98-20.2 240.98-19.1L240.98-19.1Q240.98-16.25 245.13-14.65L245.13-14.65Q246.68-14.05 247.93-13.38 249.18-12.7 250.05-11.8 250.93-10.9 251.38-9.73 251.83-8.55 251.83-6.95L251.83-6.95Q251.83-5.55 251.25-4.2 250.68-2.85 249.55-1.8 248.43-0.75 246.8-0.13 245.18 0.5 243.13 0.5L243.13 0.5Q241.48 0.5 239.88 0.13 238.28-0.25 237-0.7 235.73-1.15 234.98-1.55L234.98-1.55 234.23-1.9 236.08-6.1 236.73-5.75Q237.38-5.35 238.38-4.9 239.38-4.45 240.53-4.08 241.68-3.7 242.63-3.7L242.63-3.7Q244.38-3.7 245.23-4.4 246.08-5.1 246.08-6.25L246.08-6.25Q246.08-7.55 245.15-8.63 244.23-9.7 242.38-10.4L242.38-10.4Q238.53-11.85 236.85-13.7 235.18-15.55 235.18-18.5L235.18-18.5Q235.18-19.9 235.83-21.18 236.48-22.45 237.6-23.43 238.73-24.4 240.28-24.95 241.83-25.5 243.63-25.5ZM263.02 10.05L257.32 11.05 257.32-12.6Q257.32-15.6 256.92-17.63 256.52-19.65 256.07-20.9L256.07-20.9Q255.52-22.35 254.87-23.25L254.87-23.25 259.37-25.05Q259.97-24.45 260.47-23.55L260.47-23.55Q260.87-22.8 261.27-21.73 261.67-20.65 261.87-19.2L261.87-19.2Q262.72-22.2 264.57-23.75 266.42-25.3 269.72-25.3L269.72-25.3Q272.07-25.3 273.8-24.43 275.52-23.55 276.65-21.93 277.77-20.3 278.32-18 278.87-15.7 278.87-12.9L278.87-12.9Q278.87-10.05 278.02-7.63 277.17-5.2 275.6-3.45 274.02-1.7 271.82-0.7 269.62 0.3 266.92 0.3L266.92 0.3Q265.97 0.3 265 0.2 264.02 0.1 263.02 0L263.02 0 263.02 10.05ZM268.77-21.3Q267.52-21.3 266.47-20.45 265.42-19.6 264.65-18.2 263.87-16.8 263.45-15.05 263.02-13.3 263.02-11.45L263.02-11.45 263.02-4.25Q263.52-4.1 264.52-3.9 265.52-3.7 266.27-3.7L266.27-3.7Q268.17-3.7 269.42-4.35 270.67-5 271.42-6.15 272.17-7.3 272.47-8.9 272.77-10.5 272.77-12.4L272.77-12.4Q272.77-14.15 272.67-15.75 272.57-17.35 272.15-18.6 271.72-19.85 270.92-20.58 270.12-21.3 268.77-21.3L268.77-21.3ZM293.82-25.5Q299.57-25.5 302.17-22.1 304.77-18.7 304.77-12.75L304.77-12.75Q304.77-9.95 304.07-7.53 303.37-5.1 301.94-3.33 300.52-1.55 298.37-0.53 296.22 0.5 293.37 0.5L293.37 0.5Q290.52 0.5 288.44-0.38 286.37-1.25 285.02-2.9 283.67-4.55 283.05-6.9 282.42-9.25 282.42-12.2L282.42-12.2Q282.42-15.05 283.12-17.48 283.82-19.9 285.25-21.68 286.67-23.45 288.82-24.48 290.97-25.5 293.82-25.5L293.82-25.5ZM293.32-21.3Q291.87-21.3 290.94-20.65 290.02-20 289.5-18.82 288.97-17.65 288.77-16.07 288.57-14.5 288.57-12.7L288.57-12.7Q288.57-10.85 288.8-9.2 289.02-7.55 289.62-6.33 290.22-5.1 291.25-4.4 292.27-3.7 293.87-3.7L293.87-3.7Q295.32-3.7 296.25-4.35 297.17-5 297.69-6.18 298.22-7.35 298.42-8.9 298.62-10.45 298.62-12.25L298.62-12.25Q298.62-14.1 298.4-15.75 298.17-17.4 297.57-18.65 296.97-19.9 295.94-20.6 294.92-21.3 293.32-21.3L293.32-21.3ZM307.02-20.85L307.02-24.9 311.52-24.9 312.52-30.75 317.22-31.8 317.22-24.9 323.37-24.9 322.67-20.85 317.22-20.85 317.22-6.05Q317.22-4.75 317.92-4.38 318.62-4 319.47-4L319.47-4Q320.17-4 320.87-4.1 321.57-4.2 322.12-4.35L322.12-4.35Q322.77-4.5 323.37-4.7L323.37-4.7 324.32-0.95 323.87-0.8Q323.42-0.6 322.54-0.38 321.67-0.15 320.49 0.03 319.32 0.2 317.92 0.2L317.92 0.2Q316.52 0.2 315.34-0.1 314.17-0.4 313.32-1.07 312.47-1.75 311.99-2.8 311.52-3.85 311.52-5.4L311.52-5.4 311.52-20.85 307.02-20.85ZM361.71 0L356.06 0 356.06-16.15Q356.06-18.25 355.31-19.53 354.56-20.8 352.76-20.8L352.76-20.8Q351.61-20.8 350.54-20.23 349.46-19.65 348.61-18.55 347.76-17.45 347.24-15.88 346.71-14.3 346.71-12.35L346.71-12.35 346.71 0 341.01 0 341.01-12.6Q341.01-15.6 340.61-17.63 340.21-19.65 339.76-20.9L339.76-20.9Q339.21-22.35 338.56-23.25L338.56-23.25 343.06-25.05Q343.56-24.5 344.06-23.7L344.06-23.7Q344.46-23 344.86-21.98 345.26-20.95 345.51-19.65L345.51-19.65Q346.81-22.65 349.26-23.98 351.71-25.3 354.41-25.3L354.41-25.3Q358.26-25.3 359.99-22.98 361.71-20.65 361.71-16.7L361.71-16.7 361.71 0ZM377.91-25.5Q383.66-25.5 386.26-22.1 388.86-18.7 388.86-12.75L388.86-12.75Q388.86-9.95 388.16-7.53 387.46-5.1 386.04-3.33 384.61-1.55 382.46-0.53 380.31 0.5 377.46 0.5L377.46 0.5Q374.61 0.5 372.54-0.38 370.46-1.25 369.11-2.9 367.76-4.55 367.14-6.9 366.51-9.25 366.51-12.2L366.51-12.2Q366.51-15.05 367.21-17.48 367.91-19.9 369.34-21.68 370.76-23.45 372.91-24.48 375.06-25.5 377.91-25.5L377.91-25.5ZM377.41-21.3Q375.96-21.3 375.04-20.65 374.11-20 373.59-18.82 373.06-17.65 372.86-16.07 372.66-14.5 372.66-12.7L372.66-12.7Q372.66-10.85 372.89-9.2 373.11-7.55 373.71-6.33 374.31-5.1 375.34-4.4 376.36-3.7 377.96-3.7L377.96-3.7Q379.41-3.7 380.34-4.35 381.26-5 381.79-6.18 382.31-7.35 382.51-8.9 382.71-10.45 382.71-12.25L382.71-12.25Q382.71-14.1 382.49-15.75 382.26-17.4 381.66-18.65 381.06-19.9 380.04-20.6 379.01-21.3 377.41-21.3L377.41-21.3ZM420.61-24.9L426.41-24.9 426.51-24.5Q426.56-24.05 426.66-23.35 426.76-22.65 426.83-21.7 426.91-20.75 426.91-19.8L426.91-19.8Q426.91-14.25 426.28-10.4 425.66-6.55 424.23-4.17 422.81-1.8 420.46-0.73 418.11 0.35 414.66 0.35L414.66 0.35Q409.81 0.35 408.01-3.65L408.01-3.65Q407.11-1.6 405.53-0.63 403.96 0.35 400.91 0.35L400.91 0.35Q397.01 0.35 395.31-1.9 393.61-4.15 393.61-8.15L393.61-8.15 393.61-24.9 399.31-24.9 399.31-8.6Q399.31-6.5 400.06-5.13 400.81-3.75 402.61-3.75L402.61-3.75Q404.91-3.75 406.16-6 407.41-8.25 407.41-13.45L407.41-13.45 407.41-24.9 413.06-24.9Q413.01-21.15 413.01-17.95L413.01-17.95Q413.01-16.55 412.98-15.15 412.96-13.75 412.96-12.5 412.96-11.25 412.96-10.23 412.96-9.2 412.96-8.6L412.96-8.6Q412.96-6.5 413.76-5.13 414.56-3.75 416.36-3.75L416.36-3.75Q418.11-3.75 419.08-5.1 420.06-6.45 420.51-8.63 420.96-10.8 421.06-13.58 421.16-16.35 421.16-19.2L421.16-19.2Q421.16-20.35 421.08-21.38 421.01-22.4 420.88-23.2 420.76-24 420.71-24.45L420.71-24.45 420.61-24.9Z" opacity="1" transform="matrix(1,0,0,1,0,0)" fill="#000000" class="slogan-text-1" data-fill-palette-color="secondary" id="text-1"></path></svg></g></svg></g></svg></g></svg></g><g><svg viewBox="0 0 245.65351679999995 449.85300264000006" height="449.85300264000006" width="245.65351679999995"><g><svg xmlns="http://www.w3.org/2000/svg" xmlns:xlink="http://www.w3.org/1999/xlink" version="1.1" x="0" y="0" viewBox="-217 376.9 48 87.90000000000003" style="enable-background:new -247 370.9 100 100;" xml:space="preserve" height="449.85300264000006" width="245.65351679999995" class="icon-icon-0" data-fill-palette-color="accent" id="icon-0"><g fill="#c9f06b" data-fill-palette-color="accent"><path d="M-176.5 464.8h-33c-4.1 0-7.5-3.4-7.5-7.5v-72.9c0-4.1 3.4-7.5 7.5-7.5h33c4.1 0 7.5 3.4 7.5 7.5v72.9C-169 461.5-172.4 464.8-176.5 464.8zM-209.5 377.9c-3.6 0-6.5 2.9-6.5 6.5v72.9c0 3.6 2.9 6.5 6.5 6.5h33c3.6 0 6.5-2.9 6.5-6.5v-72.9c0-3.6-2.9-6.5-6.5-6.5H-209.5zM-193 461.9c-2.6 0-4.7-2.1-4.7-4.7s2.1-4.7 4.7-4.7 4.7 2.1 4.7 4.7S-190.4 461.9-193 461.9zM-193 453.5c-2 0-3.7 1.7-3.7 3.7s1.7 3.7 3.7 3.7 3.7-1.7 3.7-3.7S-191 453.5-193 453.5zM-172.3 450.5h-41.3v-60.8h41.3V450.5zM-212.6 449.5h39.3v-58.8h-39.3V449.5zM-185.2 385.9h-15.5c-1 0-1.7-0.7-1.7-1.7s0.7-1.7 1.7-1.7h15.5c1 0 1.7 0.7 1.7 1.7S-184.2 385.9-185.2 385.9zM-200.7 383.5c-0.4 0-0.7 0.3-0.7 0.7s0.3 0.7 0.7 0.7h15.5c0.4 0 0.7-0.3 0.7-0.7s-0.3-0.7-0.7-0.7H-200.7z" fill="#000000" data-fill-palette-color="accent"></path></g><path d="M-178.2 412.5c0.1-2.2-1.4-4.2-3.6-4.8l-0.7-0.1 0-2.2c0.1-0.5-0.1-1.1-0.5-1.5-0.5-0.5-1.1-0.8-1.8-0.8-1.3 0-2.3 1-2.3 2.3v2.2h-3.6l0-2.1c0.1-0.6-0.1-1.1-0.5-1.6-0.4-0.5-1.1-0.8-1.8-0.8-1.3 0-2.3 1-2.3 2.3v2.2h-3.5v-2.2c0-1.2-1.1-2.3-2.3-2.3-1.3 0-2.3 1-2.3 2.3v2.3l-0.8 0.1c-2.2 0.6-3.8 2.6-3.8 4.8v19.8c0 2.8 2.2 5 5 5h19.8c2.8 0 5-2.2 5-5L-178.2 412.5zM-186.1 405.2c0-0.7 0.6-1.3 1.3-1.3 0.4 0 0.7 0.2 1 0.5 0.2 0.2 0.3 0.5 0.3 0.8v5.6c0 0.7-0.6 1.3-1.3 1.3s-1.3-0.6-1.3-1.3V405.2zM-194.3 405.2c0-0.7 0.6-1.3 1.3-1.3 0.4 0 0.8 0.2 1 0.4 0.2 0.2 0.3 0.5 0.3 0.9v5.6c0 0.7-0.6 1.3-1.3 1.3s-1.3-0.6-1.3-1.3V405.2zM-202.4 405.2c0-0.7 0.6-1.3 1.3-1.3 0.7 0 1.3 0.7 1.3 1.3v5.6c0 0.7-0.6 1.3-1.3 1.3s-1.3-0.6-1.3-1.3V405.2zM-179.2 432.2c0 2.2-1.8 4-4 4H-203c-2.2 0-4-1.8-4-4v-19.8c0-1.7 1.3-3.4 3-3.8l0.6-0.1v2.3c0 1.3 1 2.3 2.3 2.3 1.3 0 2.3-1 2.3-2.3v-2.4h3.5v2.4c0 1.3 1 2.3 2.3 2.3s2.3-1 2.3-2.3l0-2.4h3.6v2.4c0 1.3 1 2.3 2.3 2.3s2.3-1 2.3-2.3l0-2.3 0.5 0.1c1.8 0.5 2.9 2 2.8 3.8V432.2z" fill="#000000" data-fill-palette-color="accent"></path><g fill="#c9f06b" data-fill-palette-color="accent"><path d="M-183 432.8h-3c-1 0-1.7-0.9-1.7-1.7v-3c0-1 0.9-1.7 1.7-1.7h3c1 0 1.7 0.9 1.7 1.7v3C-181.3 432.2-182.2 432.8-183 432.8zM-186 427.4c-0.3 0-0.7 0.3-0.7 0.7v3c0 0.3 0.3 0.7 0.7 0.7h3c0.3 0 0.7-0.3 0.7-0.7v-3c0-0.3-0.3-0.7-0.7-0.7H-186zM-191.4 432.8h-11.4c-1 0-1.7-0.9-1.7-1.7v-11.8c0-1 0.9-1.7 1.7-1.7h11.4c1 0 1.7 0.9 1.7 1.7v11.8C-189.7 432.2-190.6 432.8-191.4 432.8zM-202.8 418.6c-0.3 0-0.7 0.3-0.7 0.7v11.8c0 0.3 0.3 0.7 0.7 0.7h11.4c0.3 0 0.7-0.3 0.7-0.7v-11.8c0-0.3-0.3-0.7-0.7-0.7H-202.8zM-183 424h-3c-1 0-1.7-0.9-1.7-1.7v-3c0-1 0.9-1.7 1.7-1.7h3c1 0 1.7 0.9 1.7 1.7v3C-181.3 423.4-182.2 424-183 424zM-186 418.6c-0.3 0-0.7 0.3-0.7 0.7v3c0 0.3 0.3 0.7 0.7 0.7h3c0.3 0 0.7-0.3 0.7-0.7v-3c0-0.3-0.3-0.7-0.7-0.7H-186z" fill="#000000" data-fill-palette-color="accent"></path></g><path d="M-192.2 423c0-0.1 0-0.2-0.1-0.3l-1.2-1.3c-0.1-0.1-0.2-0.1-0.3-0.1-0.1 0-0.2 0-0.3 0.1l-4.2 4.1-1.6-1.9c-0.1-0.1-0.2-0.2-0.3-0.2-0.1 0-0.2 0-0.3 0.1l-1.3 1.1c-0.1 0.1-0.1 0.2-0.2 0.3 0 0.1 0 0.2 0.1 0.3l3.1 3.7c0 0 0 0 0 0 0.1 0.1 0.2 0.1 0.3 0.1 0.1 0 0.2 0 0.3-0.1 0 0 0 0 0 0l5.9-5.8C-192.2 423.2-192.2 423.1-192.2 423z" fill="#000000" data-fill-palette-color="accent"></path></svg></g></svg></g></svg></g><defs></defs></svg><rect width="371.7666872759277" height="247.2" fill="none" stroke="none" visibility="hidden"></rect></g></svg></g></svg>